<?xml version="1.0" encoding="UTF-8"?>
<svg version="1.1" xmlns="http://www.w3.org/2000/svg" width="658" height="110">
<path d="M0 0 C1.4817456 0.60001826 2.96385878 1.1991295 4.44631958 1.79737854 C7.53703467 3.0472813 10.62465058 4.304443 13.70996094 5.56762695 C17.66358628 7.18622182 21.62229745 8.79188246 25.5830822 10.39286709 C29.36970279 11.92411611 33.15367713 13.46185376 36.9375 15 C37.65775234 15.29212309 38.37800468 15.58424618 39.12008286 15.88522148 C41.1555964 16.71213459 43.189161 17.54365558 45.22216797 18.37670898 C46.37860809 18.84890366 47.53504822 19.32109833 48.72653198 19.80760193 C51.5703125 21.06640625 51.5703125 21.06640625 54.5703125 23.06640625 C54.8359375 26.33203125 54.8359375 26.33203125 54.8203125 30.31640625 C54.92189201 35.60828941 54.92189201 35.60828941 57.1484375 40.3203125 C58.89345328 41.73547773 60.6608279 42.89169881 62.5703125 44.06640625 C63.69287381 46.31152887 63.70445012 47.58097274 63.6953125 50.06640625 C63.69789063 50.76765625 63.70046875 51.46890625 63.703125 52.19140625 C63.5703125 54.06640625 63.5703125 54.06640625 62.5703125 56.06640625 C62.71476501 62.98901514 63.83233119 69.73098684 65.16015625 76.5078125 C65.73288375 80.0805412 65.70656141 83.45581014 65.5703125 87.06640625 C62.90853029 88.39729735 60.88291854 88.17909618 57.90625 88.1640625 C56.22402344 88.15922852 56.22402344 88.15922852 54.5078125 88.15429688 C53.3321875 88.14591797 52.1565625 88.13753906 50.9453125 88.12890625 C49.76195312 88.12439453 48.57859375 88.11988281 47.359375 88.11523438 C44.42963743 88.10342092 41.49999978 88.08694883 38.5703125 88.06640625 C36.7688121 84.3000537 36.40306668 82.08189351 37.28515625 78.01171875 C37.47658203 77.06683594 37.66800781 76.12195313 37.86523438 75.1484375 C38.07728516 74.17261719 38.28933594 73.19679688 38.5078125 72.19140625 C39.88156713 65.80323456 40.95060421 60.57705934 39.5703125 54.06640625 C39.10403656 49.71704546 39.28340498 46.6299746 41.3203125 42.62890625 C43.51467006 40.12977681 44.32141596 39.29847029 47.5703125 39.06640625 C47.5703125 36.42640625 47.5703125 33.78640625 47.5703125 31.06640625 C46.98016357 31.30875 46.39001465 31.55109375 45.78198242 31.80078125 C43.10943514 32.89472956 40.4336964 33.98064664 37.7578125 35.06640625 C36.82904297 35.44796875 35.90027344 35.82953125 34.94335938 36.22265625 C33.6043457 36.7640625 33.6043457 36.7640625 32.23828125 37.31640625 C31.41610107 37.6515625 30.5939209 37.98671875 29.74682617 38.33203125 C27.5703125 39.06640625 27.5703125 39.06640625 24.5703125 39.06640625 C24.64100952 40.70053467 24.64100952 40.70053467 24.71313477 42.36767578 C24.87655741 46.42607559 24.97953087 50.48418826 25.06469727 54.54492188 C25.10984376 56.29900064 25.17118171 58.05274276 25.24926758 59.80566406 C25.87969251 74.32603964 25.87969251 74.32603964 22.75976562 78.47290039 C20.41147247 80.07258826 18.23438879 81.09538018 15.5703125 82.06640625 C14.44367188 82.65808594 13.31703125 83.24976562 12.15625 83.859375 C-6.99688108 92.17770565 -26.75460349 93.70474401 -46.6875 86.96484375 C-61.33964513 81.15644862 -61.33964513 81.15644862 -66.4296875 76.06640625 C-66.51827396 73.3274654 -66.54492229 70.61387355 -66.52734375 67.875 C-66.5259288 67.05516129 -66.52451385 66.23532257 -66.52305603 65.39064026 C-66.51744039 62.76169243 -66.50488529 60.13282852 -66.4921875 57.50390625 C-66.48717451 55.72591268 -66.48261126 53.94791779 -66.47851562 52.16992188 C-66.46746589 47.8020508 -66.45019081 43.43424277 -66.4296875 39.06640625 C-67.13706055 38.94491211 -67.84443359 38.82341797 -68.57324219 38.69824219 C-73.82435572 37.53671383 -78.70882638 35.33508929 -83.6796875 33.31640625 C-84.7934375 32.88585938 -85.9071875 32.4553125 -87.0546875 32.01171875 C-88.11171875 31.58117188 -89.16875 31.150625 -90.2578125 30.70703125 C-91.2262207 30.32063477 -92.19462891 29.93423828 -93.19238281 29.53613281 C-95.4296875 28.06640625 -95.4296875 28.06640625 -96.06951904 25.47454834 C-96.24780243 24.28251801 -96.24780243 24.28251801 -96.4296875 23.06640625 C-89.81276268 19.63939293 -83.13954102 16.61408787 -76.20703125 13.88671875 C-75.26267715 13.51086639 -74.31832306 13.13501404 -73.34535217 12.74777222 C-70.35425438 11.55817782 -67.36085175 10.37452524 -64.3671875 9.19140625 C-61.40885925 8.01816319 -58.45104254 6.84365296 -55.49380493 5.66766357 C-53.56105379 4.90038084 -51.62711987 4.13607046 -49.69198608 3.37481689 C-45.26488012 1.62717606 -40.87008573 -0.15752171 -36.52392578 -2.09863281 C-35.76511612 -2.43178497 -35.00630646 -2.76493713 -34.22450256 -3.10818481 C-32.84098969 -3.72026584 -31.46439625 -4.34840189 -30.09764099 -4.99703979 C-19.64858444 -9.58357675 -9.7539853 -4.01002222 0 0 Z M-28.26220703 2.23779297 C-29.45999786 2.71183563 -30.6577887 3.1858783 -31.89187622 3.67428589 C-33.19887713 4.19790667 -34.5057487 4.72185037 -35.8125 5.24609375 C-37.15093039 5.77964211 -38.48946332 6.31293333 -39.82809448 6.84597778 C-42.63207815 7.96399697 -45.43445965 9.08592331 -48.23583984 10.21044922 C-51.83190887 11.65347986 -55.43224264 13.08551108 -59.03390694 14.5145092 C-61.79813795 15.61287722 -64.55978327 16.71762775 -67.32070541 17.8242836 C-68.6475757 18.35509321 -69.97530874 18.8837513 -71.30389786 19.41024399 C-73.1572147 20.14564464 -75.00669168 20.89070039 -76.85595703 21.63623047 C-78.43789352 22.26910477 -78.43789352 22.26910477 -80.05178833 22.9147644 C-82.56816883 23.83498895 -82.56816883 23.83498895 -83.4296875 26.06640625 C-75.73537855 29.23232915 -68.0340704 32.3802976 -60.32328701 35.5058527 C-56.74273985 36.95786952 -53.16487737 38.4158534 -49.5925293 39.88793945 C-46.1423652 41.30941245 -42.68597204 42.71459834 -39.22474861 44.10891533 C-37.90798423 44.64262111 -36.59353256 45.1820713 -35.28155327 45.72743416 C-33.43805654 46.49257203 -31.5852412 47.2351383 -29.73217773 47.97680664 C-28.15665382 48.61967369 -28.15665382 48.61967369 -26.54930115 49.27552795 C-20.73246608 50.7502005 -15.81587292 49.04785821 -10.40258789 46.84155273 C-9.26193375 46.38115097 -8.1212796 45.92074921 -6.94606018 45.44639587 C-5.73538376 44.94846024 -4.52470734 44.4505246 -3.27734375 43.9375 C-2.00967336 43.42257608 -0.74171911 42.90835048 0.52650452 42.39479065 C3.84519639 41.04874108 7.15997426 39.6933075 10.47399902 38.33581543 C13.86379565 36.94925616 17.25724606 35.57170033 20.65039062 34.19335938 C27.2939523 31.4931231 33.93340081 28.78295259 40.5703125 26.06640625 C40.5703125 25.40640625 40.5703125 24.74640625 40.5703125 24.06640625 C32.80153535 20.93110869 25.03054751 17.80138243 17.25666332 14.67877197 C13.6471296 13.22869235 10.03839203 11.77669547 6.43139648 10.3203125 C2.9513602 8.91527331 -0.53066495 7.51527668 -4.01413536 6.11877441 C-5.34373965 5.58471303 -6.67261339 5.04882917 -8.00074196 4.5111084 C-9.85899236 3.75911607 -11.72008448 3.01415745 -13.58129883 2.26953125 C-14.64053055 1.84317383 -15.69976227 1.41681641 -16.79109192 0.97753906 C-21.3256601 -0.5882916 -23.94562854 0.51999402 -28.26220703 2.23779297 Z M-59.4296875 43.06640625 C-59.4296875 52.96640625 -59.4296875 62.86640625 -59.4296875 73.06640625 C-50.29703375 77.79611824 -50.29703375 77.79611824 -40.9921875 81.37890625 C-40.04472656 81.68441406 -39.09726562 81.98992187 -38.12109375 82.3046875 C-18.19555276 87.94399155 -0.32209876 81.84381555 17.5703125 73.06640625 C17.5703125 63.16640625 17.5703125 53.26640625 17.5703125 43.06640625 C13.08826056 43.96281664 9.51400475 45.33224295 5.42578125 47.21875 C4.01240514 47.83834631 2.59763956 48.45478083 1.18164062 49.06835938 C-1.02626045 50.02527107 -3.22130893 50.99406866 -5.39819336 52.01977539 C-12.67157284 55.42608472 -18.84677363 58.23903945 -26.77868652 55.55302429 C-29.46677757 54.45877078 -32.07451887 53.25303751 -34.6645813 51.94424438 C-37.13679865 50.71473952 -39.68870128 49.72813214 -42.26171875 48.73046875 C-44.78977403 47.69900663 -47.31501891 46.66126534 -49.83789062 45.6171875 C-50.65837891 45.28332031 -51.47886719 44.94945312 -52.32421875 44.60546875 C-53.04456299 44.30850098 -53.76490723 44.0115332 -54.50708008 43.70556641 C-56.56647779 42.90867199 -56.56647779 42.90867199 -59.4296875 43.06640625 Z M48.5703125 45.06640625 C46.25468163 46.95140896 46.25468163 46.95140896 46.3203125 50.06640625 C46.25468163 53.18140354 46.25468163 53.18140354 48.5703125 55.06640625 C52.91226186 54.96945509 52.91226186 54.96945509 56.5703125 53.06640625 C56.28301195 50.72695889 55.95094471 48.39249195 55.5703125 46.06640625 C52.16710316 45.38967178 52.16710316 45.38967178 48.5703125 45.06640625 Z M47.5703125 62.06640625 C47.06697708 64.66996866 46.56751872 67.27417276 46.0703125 69.87890625 C45.92722656 70.61689453 45.78414062 71.35488281 45.63671875 72.11523438 C45.06104969 75.14435016 44.5703125 77.97560225 44.5703125 81.06640625 C49.1903125 81.06640625 53.8103125 81.06640625 58.5703125 81.06640625 C57.5803125 74.79640625 56.5903125 68.52640625 55.5703125 62.06640625 C52.9303125 62.06640625 50.2903125 62.06640625 47.5703125 62.06640625 Z " fill="#C3A579" transform="translate(102.4296875,12.93359375)"/>
<path d="M0 0 C5.00019704 -0.90167488 5.00019704 -0.90167488 8 0 C10.27769729 2.35500816 11.57062517 5.07512268 13 8 C13.76276523 9.33796525 14.53293558 10.67175261 15.3125 12 C15.869375 12.99 16.42625 13.98 17 15 C20.04888329 12.40617392 21.33028695 9.3748153 23.0625 5.8125 C26.19186263 0.25067777 26.19186263 0.25067777 29.64453125 -0.8203125 C36.19843974 -0.80156026 36.19843974 -0.80156026 38 1 C38.10099488 3.72724279 38.13970529 6.42862523 38.1328125 9.15625 C38.13376923 9.97371704 38.13472595 10.79118408 38.13571167 11.63342285 C38.13639345 13.36515378 38.13453929 15.09688724 38.13037109 16.82861328 C38.12502279 19.48866482 38.13031612 22.1485475 38.13671875 24.80859375 C38.13605797 26.48697954 38.1347768 28.16536523 38.1328125 29.84375 C38.13483673 30.64478149 38.13686096 31.44581299 38.13894653 32.27111816 C38.11495079 37.88504921 38.11495079 37.88504921 37 39 C33.66381769 39.14257189 30.34024394 39.04228157 27 39 C26.67 33.39 26.34 27.78 26 22 C25.29875 23.32 24.5975 24.64 23.875 26 C21.43891403 29.85369532 21.43891403 29.85369532 18 31 C13.29996239 29.4333208 12.28295528 26.29732759 10 22 C9.67 27.61 9.34 33.22 9 39 C5.37 39 1.74 39 -2 39 C-2.04942365 33.927993 -2.08573068 28.85612606 -2.10986328 23.78393555 C-2.11992326 22.05832477 -2.13357276 20.33273105 -2.15087891 18.60717773 C-2.17512754 16.1273986 -2.18648301 13.64784477 -2.1953125 11.16796875 C-2.20563507 10.39599655 -2.21595764 9.62402435 -2.22659302 8.82865906 C-2.22739422 5.00718524 -2.17242595 3.25863893 0 0 Z " fill="#C3A478" transform="translate(241,35)"/>
<path d="M0 0 C1.94140625 2.00390625 1.94140625 2.00390625 3.5625 4.5625 C4.14257812 5.45839844 4.72265625 6.35429688 5.3203125 7.27734375 C6.15175781 8.62505859 6.15175781 8.62505859 7 10 C7.51304687 10.80566406 8.02609375 11.61132812 8.5546875 12.44140625 C9.72097551 14.28308704 10.86328492 16.13992078 12 18 C12.02578125 16.87980469 12.0515625 15.75960937 12.078125 14.60546875 C12.13440635 13.13277354 12.19175368 11.6601188 12.25 10.1875 C12.27126953 9.08051758 12.27126953 9.08051758 12.29296875 7.95117188 C12.54014693 2.48853414 12.54014693 2.48853414 14.87890625 0.00390625 C17.43633142 -1.20651413 19.20240692 -1.3024425 22 -1 C23 0 23 0 23.11352539 3.69360352 C23.11336624 5.33871292 23.10766988 6.98382731 23.09765625 8.62890625 C23.0962413 9.49313705 23.09482635 10.35736786 23.09336853 11.24778748 C23.08775239 14.01939292 23.07519719 16.7909188 23.0625 19.5625 C23.05748708 21.4368478 23.05292381 23.31119685 23.04882812 25.18554688 C23.03777772 29.79039544 23.0205023 34.39518421 23 39 C19.53670749 39.52476727 16.44710997 39.70049601 13 39 C10.20418412 36.59980457 8.62197992 33.71301278 6.875 30.5 C6.39546875 29.68917969 5.9159375 28.87835938 5.421875 28.04296875 C4.24682777 26.04538847 3.10953611 24.03446783 2 22 C1.93941406 23.14339844 1.87882812 24.28679688 1.81640625 25.46484375 C1.73201572 26.95574305 1.64736698 28.44662775 1.5625 29.9375 C1.50352539 31.06961914 1.50352539 31.06961914 1.44335938 32.22460938 C1.11328125 37.88671875 1.11328125 37.88671875 0 39 C-1.68608966 39.07205511 -3.37500659 39.08386068 -5.0625 39.0625 C-5.98160156 39.05347656 -6.90070313 39.04445312 -7.84765625 39.03515625 C-8.55792969 39.02355469 -9.26820313 39.01195312 -10 39 C-10.0988364 33.78561957 -10.17145206 28.57178357 -10.21972656 23.35668945 C-10.23984903 21.58250431 -10.2671503 19.80838554 -10.30175781 18.03442383 C-10.35024992 15.48502233 -10.37296153 12.93649705 -10.390625 10.38671875 C-10.41127014 9.59287277 -10.43191528 8.79902679 -10.45318604 7.98112488 C-10.45542109 2.50273836 -10.45542109 2.50273836 -8.16479492 -0.02587891 C-5.01952788 -1.44119587 -3.24599794 -1.06209394 0 0 Z " fill="#C3A578" transform="translate(385,35)"/>
<path d="M0 0 C2.87631365 1.67981433 5.01304443 3.18315413 6.5 6.25 C6.5 7.9 6.5 9.55 6.5 11.25 C2.87 11.25 -0.76 11.25 -4.5 11.25 C-4.83 10.26 -5.16 9.27 -5.5 8.25 C-7.81 8.25 -10.12 8.25 -12.5 8.25 C-12.83 9.24 -13.16 10.23 -13.5 11.25 C-12.40300781 11.55292969 -11.30601562 11.85585938 -10.17578125 12.16796875 C-8.7211065 12.59029368 -7.26669283 13.01351863 -5.8125 13.4375 C-5.09126953 13.63408203 -4.37003906 13.83066406 -3.62695312 14.03320312 C1.23202174 15.47536461 4.32276499 17.09373327 7.5 21.25 C8.65403 25.83744846 8.13741199 30.00173486 6 34.1875 C0.5793405 38.65954409 -5.09577415 39.78084184 -12.0390625 39.53515625 C-17.31066075 38.92432026 -21.13521538 37.54654538 -25 33.875 C-26.66051812 30.96909328 -26.63112923 29.51730338 -26.5 26.25 C-15.83278875 25.74559597 -15.83278875 25.74559597 -10.5 29.25 C-7.26443801 29.03150791 -7.26443801 29.03150791 -4.5 28.25 C-4.83 27.26 -5.16 26.27 -5.5 25.25 C-8.31790835 24.136636 -8.31790835 24.136636 -11.6875 23.3125 C-16.69614337 21.87753192 -20.49993261 20.58338949 -24.5 17.25 C-26.24580224 13.75839553 -26.06983131 10.05954642 -25.5 6.25 C-23.80979747 2.91868797 -21.5470566 0.75782245 -18.15625 -0.88671875 C-12.16793699 -2.83292048 -5.72303166 -2.68696865 0 0 Z " fill="#C3A578" transform="translate(645.5,35.75)"/>
<path d="M0 0 C3.32913978 2.37795699 5.33013806 4.46747772 7.625 7.875 C7.25390625 10.06640625 7.25390625 10.06640625 6.625 11.875 C5.04253293 11.95653933 3.45883727 12.01443557 1.875 12.0625 C0.99328125 12.09730469 0.1115625 12.13210937 -0.796875 12.16796875 C-3.84469289 11.82162581 -5.0187142 10.75204123 -7.375 8.875 C-10.0734589 9.09697813 -10.0734589 9.09697813 -12.375 9.875 C-12.045 10.865 -11.715 11.855 -11.375 12.875 C-7.92516713 14.06257336 -4.43591845 14.85818811 -0.890625 15.71484375 C2.75139256 16.91670954 4.85741506 18.25604462 7.625 20.875 C9.2242715 24.073543 8.98627908 27.39601629 8.625 30.875 C7.17682734 34.49543164 6.05084637 35.62130429 2.6875 37.625 C-4.01953507 40.36256534 -10.72347479 40.99148591 -17.6875 38.6875 C-21.31420814 37.15590214 -23.29888738 35.2798247 -25.375 31.875 C-26.1875 29.625 -26.1875 29.625 -26.375 27.875 C-24.65165979 26.15165979 -22.4081379 26.66228166 -20.0625 26.625 C-19.09699219 26.59921875 -18.13148438 26.5734375 -17.13671875 26.546875 C-13.96679184 26.92349998 -12.82537528 27.93231347 -10.375 29.875 C-7.18264728 29.64926109 -7.18264728 29.64926109 -4.375 28.875 C-4.375 27.885 -4.375 26.895 -4.375 25.875 C-5.32761719 25.63265625 -6.28023438 25.3903125 -7.26171875 25.140625 C-9.14310547 24.63789062 -9.14310547 24.63789062 -11.0625 24.125 C-12.30386719 23.80015625 -13.54523438 23.4753125 -14.82421875 23.140625 C-19.02210585 21.64434841 -22.22287272 19.99159747 -24.40625 15.98046875 C-25.33087312 12.19721913 -25.40686519 10.01156511 -24.5 6.125 C-19.02502016 -2.24849857 -9.00130685 -3.00043562 0 0 Z " fill="#C3A579" transform="translate(309.375,35.125)"/>
<path d="M0 0 C3.90623407 3.60575453 4.69701043 6.74818084 5 12 C4 13 4 13 2.00390625 13.1328125 C1.19824219 13.13023438 0.39257812 13.12765625 -0.4375 13.125 C-1.24058594 13.12757812 -2.04367187 13.13015625 -2.87109375 13.1328125 C-5 13 -5 13 -7 12 C-7.268125 11.34 -7.53625 10.68 -7.8125 10 C-8.85085669 7.75437822 -8.85085669 7.75437822 -11.4375 7.1875 C-14.11939103 6.82612179 -14.11939103 6.82612179 -17 8 C-18.50929383 11.01858766 -18.22510073 14.12900954 -18.25 17.4375 C-18.270625 18.11876953 -18.29125 18.80003906 -18.3125 19.50195312 C-18.33553266 22.44149588 -18.33921539 24.4936785 -16.67578125 26.9765625 C-14.89150083 28.27276641 -14.89150083 28.27276641 -11.9375 27.9375 C-8.89789929 27.31628391 -8.89789929 27.31628391 -7.75 25 C-7.5025 24.34 -7.255 23.68 -7 23 C-4.59454362 21.79727181 -3.05003047 21.89928528 -0.375 21.9375 C0.85089844 21.95103516 0.85089844 21.95103516 2.1015625 21.96484375 C2.72804688 21.97644531 3.35453125 21.98804687 4 22 C5.34479164 25.69817702 5.02293598 26.94883512 3.375 30.625 C1.02892917 34.34635373 -1.60794964 36.28490284 -5.85546875 37.5546875 C-12.60998084 38.95726378 -18.99721306 38.53105114 -25 35 C-28.93690632 31.25738256 -30.88822829 27.95170603 -31.203125 22.453125 C-31.22435179 21.05215701 -31.23977305 19.65109147 -31.25 18.25 C-31.270625 17.5590625 -31.29125 16.868125 -31.3125 16.15625 C-31.35541582 10.44844654 -30.31919795 5.75829943 -26.53515625 1.2578125 C-18.88429071 -4.62746869 -8.41301703 -4.83797053 0 0 Z " fill="#C3A579" transform="translate(611,37)"/>
<path d="M0 0 C4.29 0 8.58 0 13 0 C16.45028608 7.49711696 19.38755037 15.1364007 22.25 22.875 C22.93835938 24.70804688 22.93835938 24.70804688 23.640625 26.578125 C24.07375 27.74601562 24.506875 28.91390625 24.953125 30.1171875 C25.34661133 31.17534668 25.74009766 32.23350586 26.14550781 33.32373047 C27 36 27 36 27 39 C23.37 39 19.74 39 16 39 C15.01 36.69 14.02 34.38 13 32 C8.38 32.33 3.76 32.66 -1 33 C-1.33 34.98 -1.66 36.96 -2 39 C-5.63 39 -9.26 39 -13 39 C-12.43060084 33.78689993 -11.1752775 29.21260218 -9.27734375 24.31640625 C-9.01240616 23.61603745 -8.74746857 22.91566864 -8.47450256 22.19407654 C-7.63555237 19.98092701 -6.78672031 17.77172627 -5.9375 15.5625 C-5.36327213 14.05298534 -4.78969794 12.54322184 -4.21679688 11.03320312 C-2.8187371 7.3525494 -1.41180852 3.67540078 0 0 Z M6 12 C5.49440092 13.43554025 4.9957251 14.8735202 4.5 16.3125 C4.2215625 17.11300781 3.943125 17.91351563 3.65625 18.73828125 C2.86066893 21.08769422 2.86066893 21.08769422 3 24 C5.31 23.34 7.62 22.68 10 22 C9.71872579 20.51882199 9.42466268 19.04006751 9.125 17.5625 C8.88136719 16.32693359 8.88136719 16.32693359 8.6328125 15.06640625 C8.42398437 14.38449219 8.21515625 13.70257813 8 13 C7.34 12.67 6.68 12.34 6 12 Z " fill="#C3A578" transform="translate(425,35)"/>
<path d="M0 0 C1.79244141 0.01740234 1.79244141 0.01740234 3.62109375 0.03515625 C5.41740234 0.04869141 5.41740234 0.04869141 7.25 0.0625 C8.17683594 0.07410156 9.10367187 0.08570313 10.05859375 0.09765625 C11.47620966 3.86813339 12.89250721 7.63910449 14.30859375 11.41015625 C14.90220703 12.98893555 14.90220703 12.98893555 15.5078125 14.59960938 C16.30275309 16.71727898 17.09506759 18.83593622 17.88476562 20.95556641 C18.66412017 23.04173383 19.45182443 25.12480191 20.24804688 27.20458984 C20.61349609 28.17348145 20.97894531 29.14237305 21.35546875 30.140625 C21.68385742 31.00067139 22.01224609 31.86071777 22.35058594 32.74682617 C23.05859375 35.09765625 23.05859375 35.09765625 23.05859375 39.09765625 C19.75859375 39.09765625 16.45859375 39.09765625 13.05859375 39.09765625 C10.05859375 33.34765625 10.05859375 33.34765625 10.05859375 31.09765625 C9.39472656 31.24203125 8.73085938 31.38640625 8.046875 31.53515625 C7.16386719 31.72078125 6.28085937 31.90640625 5.37109375 32.09765625 C4.50097656 32.28328125 3.63085938 32.46890625 2.734375 32.66015625 C0.12146411 33.08737672 -2.29953663 33.17381826 -4.94140625 33.09765625 C-4.92078125 33.90203125 -4.90015625 34.70640625 -4.87890625 35.53515625 C-4.94140625 38.09765625 -4.94140625 38.09765625 -5.94140625 39.09765625 C-9.6079582 39.2406575 -13.27284844 39.13982358 -16.94140625 39.09765625 C-14.79753178 30.49797107 -11.93037426 22.26460566 -8.81640625 13.97265625 C-8.36136719 12.74289063 -7.90632813 11.513125 -7.4375 10.24609375 C-3.66322196 0.12162092 -3.66322196 0.12162092 0 0 Z M3.05859375 12.09765625 C2.38772255 13.72092495 1.72202346 15.34633203 1.05859375 16.97265625 C0.68734375 17.87757812 0.31609375 18.7825 -0.06640625 19.71484375 C-1.05630851 21.98749483 -1.05630851 21.98749483 -0.94140625 24.09765625 C1.69859375 23.43765625 4.33859375 22.77765625 7.05859375 22.09765625 C6.06859375 18.79765625 5.07859375 15.49765625 4.05859375 12.09765625 C3.72859375 12.09765625 3.39859375 12.09765625 3.05859375 12.09765625 Z " fill="#C3A578" transform="translate(347.94140625,34.90234375)"/>
<path d="M0 0 C4.13252075 3.07536428 6.07150006 6.72356609 8.10546875 11.328125 C8.89315599 13.18726942 8.89315599 13.18726942 11 14 C11.226875 13.34 11.45375 12.68 11.6875 12 C13.49135068 7.87691274 15.78126524 3.21873476 19 0 C24.8410596 -0.37086093 24.8410596 -0.37086093 27 0 C27.66 0.99 28.32 1.98 29 3 C28.64172119 3.59312988 28.28344238 4.18625977 27.91430664 4.79736328 C18.24311612 20.80876623 18.24311612 20.80876623 16 39 C15 40 15 40 12.49609375 40.09765625 C11.48675781 40.08605469 10.47742188 40.07445312 9.4375 40.0625 C8.42558594 40.05347656 7.41367187 40.04445312 6.37109375 40.03515625 C5.19740234 40.01775391 5.19740234 40.01775391 4 40 C4.06703125 39.25621094 4.1340625 38.51242188 4.203125 37.74609375 C4.3806175 25.21808141 -1.82921565 15.7080817 -7.91430664 5.11621094 C-9 3 -9 3 -9 1 C-5.86128812 -0.56935594 -3.46144178 -0.35201103 0 0 Z " fill="#C3A578" transform="translate(495,34)"/>
<path d="M0 0 C1.29099609 0.00515625 2.58199219 0.0103125 3.91210938 0.015625 C4.58056885 0.0259375 5.24902832 0.03625 5.93774414 0.046875 C7.99188292 0.07817989 10.04525511 0.0878629 12.09960938 0.09375 C22.14690537 0.17424912 22.14690537 0.17424912 23.30078125 1.328125 C23.44271462 4.33143518 23.34314503 7.32029634 23.30078125 10.328125 C19.34078125 10.328125 15.38078125 10.328125 11.30078125 10.328125 C11.63078125 10.988125 11.96078125 11.648125 12.30078125 12.328125 C12.39797198 14.34840852 12.43154642 16.37191231 12.43359375 18.39453125 C12.43488281 19.60173828 12.43617188 20.80894531 12.4375 22.05273438 C12.43363281 23.31923828 12.42976562 24.58574219 12.42578125 25.890625 C12.43158203 27.79618164 12.43158203 27.79618164 12.4375 29.74023438 C12.43621094 30.94615234 12.43492187 32.15207031 12.43359375 33.39453125 C12.43246582 34.50771729 12.43133789 35.62090332 12.43017578 36.76782227 C12.30078125 39.328125 12.30078125 39.328125 11.30078125 40.328125 C7.67078125 40.328125 4.04078125 40.328125 0.30078125 40.328125 C-0.02921875 30.758125 -0.35921875 21.188125 -0.69921875 11.328125 C-3.99921875 10.998125 -7.29921875 10.668125 -10.69921875 10.328125 C-10.94921875 7.015625 -10.94921875 7.015625 -10.69921875 3.328125 C-7.48692349 -0.11155028 -4.54223742 -0.03574381 0 0 Z " fill="#C3A578" transform="translate(535.69921875,33.671875)"/>
<path d="M0 0 C2.75 0.375 2.75 0.375 3.75 1.375 C3.90858842 3.51886657 4.00129298 5.66766838 4.06640625 7.81640625 C4.12924805 9.77416992 4.12924805 9.77416992 4.19335938 11.77148438 C4.23317608 13.1601533 4.27288825 14.54882522 4.3125 15.9375 C4.35567989 17.33009183 4.399294 18.72267028 4.44335938 20.11523438 C4.54985806 23.53502549 4.65047056 26.95499896 4.75 30.375 C10.36 30.705 15.97 31.035 21.75 31.375 C21.75 34.345 21.75 37.315 21.75 40.375 C17.6382744 40.39965746 13.52657722 40.41783959 9.41479492 40.42993164 C8.01504772 40.4349708 6.6153058 40.44180216 5.21557617 40.45043945 C3.20754223 40.4625232 1.19947043 40.46769807 -0.80859375 40.47265625 C-2.01829834 40.47789307 -3.22800293 40.48312988 -4.47436523 40.48852539 C-7.25 40.375 -7.25 40.375 -8.25 39.375 C-8.54170277 34.60289037 -8.56407599 29.82802387 -8.60009766 25.04785156 C-8.61662713 23.43963113 -8.64387789 21.83148326 -8.68212891 20.22363281 C-8.73704207 17.90390959 -8.75879421 15.58591164 -8.7734375 13.265625 C-8.79610687 12.55085999 -8.81877625 11.83609497 -8.84213257 11.09967041 C-8.8256933 7.19409411 -8.35962155 5.51474393 -5.92041016 2.40527344 C-3.25 0.375 -3.25 0.375 0 0 Z " fill="#C3A579" transform="translate(213.25,33.625)"/>
<path d="M0 0 C1.85965075 1.85965075 1.24087549 4.94889119 1.31640625 7.44140625 C1.37924805 9.39916992 1.37924805 9.39916992 1.44335938 11.39648438 C1.48317608 12.7851533 1.52288825 14.17382522 1.5625 15.5625 C1.60567989 16.95509183 1.649294 18.34767028 1.69335938 19.74023438 C1.79985806 23.16002549 1.90047056 26.57999896 2 30 C7.61 30.33 13.22 30.66 19 31 C19 33.97 19 36.94 19 40 C9.43 40 -0.14 40 -10 40 C-10.09180995 34.78468472 -10.1714485 29.57216892 -10.21972656 24.35668945 C-10.23984903 22.58250431 -10.2671503 20.80838554 -10.30175781 19.03442383 C-10.35024992 16.48502233 -10.37296153 13.93649705 -10.390625 11.38671875 C-10.41127014 10.59287277 -10.43191528 9.79902679 -10.45318604 8.98112488 C-10.45542173 3.50117103 -10.45542173 3.50117103 -8.17480469 0.99145508 C-5.31900063 -0.31045559 -3.10076236 -0.27562332 0 0 Z " fill="#C3A578" transform="translate(466,34)"/>
<path d="M0 0 C0.80308594 0.01417969 1.60617187 0.02835938 2.43359375 0.04296875 C3.64208984 0.05263672 3.64208984 0.05263672 4.875 0.0625 C6.87109375 0.23046875 6.87109375 0.23046875 7.87109375 1.23046875 C7.97208863 3.95771154 8.01079904 6.65909398 8.00390625 9.38671875 C8.00486298 10.20418579 8.0058197 11.02165283 8.00680542 11.8638916 C8.0074872 13.59562253 8.00563304 15.32735599 8.00146484 17.05908203 C7.99611654 19.71913357 8.00140987 22.37901625 8.0078125 25.0390625 C8.00715172 26.71744829 8.00587055 28.39583398 8.00390625 30.07421875 C8.00593048 30.87525024 8.00795471 31.67628174 8.01004028 32.50158691 C7.98604454 38.11551796 7.98604454 38.11551796 6.87109375 39.23046875 C5.01821873 39.30273377 3.16275497 39.31428095 1.30859375 39.29296875 C0.29667969 39.28394531 -0.71523438 39.27492187 -1.7578125 39.265625 C-2.54027344 39.25402344 -3.32273437 39.24242187 -4.12890625 39.23046875 C-4.17826449 33.99773544 -4.21460574 28.76513699 -4.23876953 23.53222656 C-4.24884056 21.75127808 -4.2624981 19.97034618 -4.27978516 18.18945312 C-4.30398538 15.63277092 -4.31537809 13.0763069 -4.32421875 10.51953125 C-4.33454132 9.72052399 -4.34486389 8.92151672 -4.35549927 8.09829712 C-4.35589851 6.14089655 -4.25131694 4.18403798 -4.12890625 2.23046875 C-2.12890625 0.23046875 -2.12890625 0.23046875 0 0 Z " fill="#C3A478" transform="translate(567.12890625,34.76953125)"/>
</svg>
